{
  "source": "C:\\Users\\Peter\\Desktop\\stuff\\MIUN\\quantitative_research\\video_compression\\videos\\BVI-HD\\BVI-HD_CDVL_videos\\ORIG\\CloudsZoom_1920x1080_60fps.mp4",
  "output": "C:\\Users\\Peter\\Desktop\\stuff\\MIUN\\quantitative_research\\video_compression\\compressed_videos\\BVI-HD\\av1\\8\\CloudsZoom_1920x1080_60fps_av1.mkv",
  "codec": "av1",
  "ok": "Input #0, mov,mp4,m4a,3gp,3g2,mj2, from 'C:\\Users\\Peter\\Desktop\\stuff\\MIUN\\quantitative_research\\video_compression\\videos\\BVI-HD\\BVI-HD_CDVL_videos\\ORIG\\CloudsZoom_1920x1080_60fps.mp4':\n  Metadata:\n    major_brand     : isom\n    minor_version   : 512\n    compatible_brands: isomiso2avc1mp41\n    encoder         : Lavf54.28.101\n  Duration: 00:00:05.00, start: 0.000000, bitrate: 32589 kb/s\n  Stream #0:0[0x1](und): Video: h264 (High 4:4:4 Predictive) (avc1 / 0x31637661), yuv420p(progressive), 1920x1080, 32586 kb/s, 60 fps, 60 tbr, 60 tbn (default)\n    Metadata:\n      handler_name    : VideoHandler\n      vendor_id       : [0][0][0][0]\n[out#0/matroska @ 00000239bd1890c0] Codec AVOption b:a (set bitrate (in bits/s)) has not been used for any stream. The most likely reason is either wrong type (e.g. a video option with no video streams) or that it is a private option of some decoder which was not actually used for any stream.\nStream mapping:\n  Stream #0:0 -> #0:0 (h264 (native) -> av1 (libsvtav1))\nPress [q] to stop, [?] for help\nSvt[info]: -------------------------------------------\nSvt[info]: SVT [version]:\tSVT-AV1 Encoder Lib v3.1.0-19-g6ecfe8ec\nSvt[info]: SVT [build]  :\tGCC 15.2.0\t 64 bit\nSvt[info]: LIB Build date: Aug 17 2025 11:37:13\nSvt[info]: -------------------------------------------\nSvt[info]: Level of Parallelism: 5\nSvt[info]: Number of PPCS 93\nSvt[info]: [asm level on system : up to avx2]\nSvt[info]: [asm level selected : up to avx2]\nSvt[info]: -------------------------------------------\nSvt[info]: SVT [config]: main profile\ttier (auto)\tlevel (auto)\nSvt[info]: SVT [config]: width / height / fps numerator / fps denominator \t\t: 1920 / 1080 / 60 / 1\nSvt[info]: SVT [config]: bit-depth / color format \t\t\t\t\t: 8 / YUV420\nSvt[info]: SVT [config]: preset / tune / pred struct \t\t\t\t\t: 4 / PSNR / random access\nSvt[info]: SVT [config]: gop size / mini-gop size / key-frame type \t\t\t: 321 / 16 / key frame\nSvt[info]: SVT [config]: BRC mode / target bitrate (kbps)\t\t\t\t: VBR / 8000 \nSvt[info]: SVT [config]: AQ mode / Variance Boost \t\t\t\t\t: 2 / 0\nSvt[info]: SVT [config]: sharpness / luminance-based QP bias \t\t\t\t: 0 / 0\nSvt[info]: SVT [config]: QP scale compress strength \t\t\t\t\t: 0\nSvt[info]: -------------------------------------------\nOutput #0, matroska, to 'C:\\Users\\Peter\\Desktop\\stuff\\MIUN\\quantitative_research\\video_compression\\compressed_videos\\BVI-HD\\av1\\8\\CloudsZoom_1920x1080_60fps_av1.mkv':\n  Metadata:\n    major_brand     : isom\n    minor_version   : 512\n    compatible_brands: isomiso2avc1mp41\n    encoder         : Lavf62.3.100\n  Stream #0:0(und): Video: av1 (AV01 / 0x31305641), yuv420p(tv, progressive), 1920x1080, q=2-31, 8000 kb/s, 60 fps, 1k tbn (default)\n    Metadata:\n      encoder         : Lavc62.11.100 libsvtav1\n      handler_name    : VideoHandler\n      vendor_id       : [0][0][0][0]\n    Side data:\n      cpb: bitrate max/min/avg: 0/0/8000000 buffer size: 8000000 vbv_delay: N/A\nframe=    0 fps=0.0 q=0.0 size=       0KiB time=N/A bitrate=N/A speed=N/A elapsed=0:00:01.04    \nframe=    0 fps=0.0 q=0.0 size=       0KiB time=N/A bitrate=N/A speed=N/A elapsed=0:00:01.58    \nframe=    0 fps=0.0 q=0.0 size=       0KiB time=N/A bitrate=N/A speed=N/A elapsed=0:00:02.12    \nframe=    1 fps=0.4 q=1.0 size=       1KiB time=00:00:00.00 bitrate=N/A speed=   0x elapsed=0:00:02.64    \nframe=    1 fps=0.3 q=1.0 size=       1KiB time=00:00:00.00 bitrate=N/A speed=   0x elapsed=0:00:03.19    \nframe=    1 fps=0.3 q=1.0 size=       1KiB time=00:00:00.00 bitrate=N/A speed=   0x elapsed=0:00:03.72    \nframe=    1 fps=0.2 q=1.0 size=       1KiB time=00:00:00.00 bitrate=N/A speed=   0x elapsed=0:00:04.27    \nframe=    4 fps=0.8 q=9.0 size=       1KiB time=00:00:00.05 bitrate= 113.9kbits/s speed=0.0104x elapsed=0:00:04.78    \nframe=    8 fps=1.5 q=9.0 size=       1KiB time=00:00:00.11 bitrate=  48.8kbits/s speed=0.0219x elapsed=0:00:05.31    \nframe=    9 fps=1.5 q=5.0 size=       1KiB time=00:00:00.13 bitrate=  42.7kbits/s speed=0.0227x elapsed=0:00:05.87    \nframe=   11 fps=1.7 q=6.0 size=       1KiB time=00:00:00.16 bitrate=  34.2kbits/s speed=0.0259x elapsed=0:00:06.44    \nframe=   13 fps=1.9 q=5.0 size=       1KiB time=00:00:00.20 bitrate=  28.5kbits/s speed=0.0287x elapsed=0:00:06.97    \nframe=   18 fps=2.4 q=5.0 size=       1KiB time=00:00:00.26 bitrate=  21.4kbits/s speed=0.0355x elapsed=0:00:07.51    \nframe=   20 fps=2.5 q=5.0 size=       1KiB time=00:00:00.31 bitrate=  18.0kbits/s speed=0.0393x elapsed=0:00:08.05    \nframe=   22 fps=2.6 q=6.0 size=       1KiB time=00:00:00.35 bitrate=  16.3kbits/s speed=0.0408x elapsed=0:00:08.58    \nframe=   23 fps=2.5 q=6.0 size=       1KiB time=00:00:00.36 bitrate=  15.5kbits/s speed=0.0403x elapsed=0:00:09.10    \nframe=   26 fps=2.7 q=6.0 size=       1KiB time=00:00:00.41 bitrate=  13.7kbits/s speed=0.0429x elapsed=0:00:09.71    \nframe=   28 fps=2.7 q=6.0 size=       1KiB time=00:00:00.45 bitrate=  12.7kbits/s speed=0.0437x elapsed=0:00:10.30    \nframe=   31 fps=2.8 q=6.0 size=       1KiB time=00:00:00.48 bitrate=  11.8kbits/s speed=0.0443x elapsed=0:00:10.90    \nframe=   34 fps=3.0 q=6.0 size=       1KiB time=00:00:00.55 bitrate=  10.4kbits/s speed=0.0477x elapsed=0:00:11.52    \nframe=   36 fps=3.0 q=5.0 size=       1KiB time=00:00:00.58 bitrate=   9.8kbits/s speed=0.0484x elapsed=0:00:12.05    \nframe=   38 fps=3.0 q=6.0 size=       1KiB time=00:00:00.61 bitrate=   9.2kbits/s speed=0.049x elapsed=0:00:12.59    \nframe=   40 fps=3.0 q=6.0 size=       1KiB time=00:00:00.65 bitrate=   8.8kbits/s speed=0.0495x elapsed=0:00:13.11    \nframe=   43 fps=3.2 q=6.0 size=       1KiB time=00:00:00.70 bitrate=   8.1kbits/s speed=0.0513x elapsed=0:00:13.65    \nframe=   45 fps=3.2 q=5.0 size=       1KiB time=00:00:00.73 bitrate=   7.8kbits/s speed=0.0515x elapsed=0:00:14.24    \nframe=   50 fps=3.4 q=6.0 size=       1KiB time=00:00:00.81 bitrate=   7.0kbits/s speed=0.0552x elapsed=0:00:14.80    \nframe=   53 fps=3.5 q=5.0 size=       1KiB time=00:00:00.86 bitrate=   6.6kbits/s speed=0.0565x elapsed=0:00:15.32    \nframe=   55 fps=3.5 q=6.0 size=       1KiB time=00:00:00.90 bitrate=   6.3kbits/s speed=0.0568x elapsed=0:00:15.84    \nframe=   59 fps=3.6 q=6.0 size=       1KiB time=00:00:00.96 bitrate=   5.9kbits/s speed=0.0591x elapsed=0:00:16.36    \nframe=   63 fps=3.7 q=6.0 size=       1KiB time=00:00:01.03 bitrate=   5.5kbits/s speed=0.0611x elapsed=0:00:16.90    \nframe=   67 fps=3.8 q=6.0 size=       1KiB time=00:00:01.10 bitrate=   5.2kbits/s speed=0.0631x elapsed=0:00:17.43    \nframe=   70 fps=3.9 q=5.0 size=       1KiB time=00:00:01.15 bitrate=   5.0kbits/s speed=0.064x elapsed=0:00:17.96    \nframe=   72 fps=3.9 q=6.0 size=       1KiB time=00:00:01.18 bitrate=   4.8kbits/s speed=0.064x elapsed=0:00:18.49    \nframe=   76 fps=4.0 q=5.0 size=       1KiB time=00:00:01.25 bitrate=   4.6kbits/s speed=0.0657x elapsed=0:00:19.01    \nframe=   82 fps=4.2 q=6.0 size=       1KiB time=00:00:01.33 bitrate=   4.3kbits/s speed=0.0681x elapsed=0:00:19.56    \nframe=   85 fps=4.2 q=5.0 size=       1KiB time=00:00:01.40 bitrate=   4.1kbits/s speed=0.0696x elapsed=0:00:20.12    \nframe=   87 fps=4.2 q=6.0 size=       1KiB time=00:00:01.43 bitrate=   4.0kbits/s speed=0.0695x elapsed=0:00:20.62    \nframe=   91 fps=4.3 q=6.0 size=       1KiB time=00:00:01.50 bitrate=   3.8kbits/s speed=0.0709x elapsed=0:00:21.15    \nframe=   93 fps=4.3 q=5.0 size=       1KiB time=00:00:01.53 bitrate=   3.7kbits/s speed=0.0706x elapsed=0:00:21.70    \nframe=   98 fps=4.4 q=6.0 size=       1KiB time=00:00:01.61 bitrate=   3.5kbits/s speed=0.0728x elapsed=0:00:22.21    \nframe=  102 fps=4.5 q=6.0 size=       1KiB time=00:00:01.68 bitrate=   3.4kbits/s speed=0.074x elapsed=0:00:22.74    \nframe=  103 fps=4.4 q=6.0 size=       1KiB time=00:00:01.70 bitrate=   3.4kbits/s speed=0.073x elapsed=0:00:23.27    \nframe=  107 fps=4.5 q=6.0 size=       1KiB time=00:00:01.76 bitrate=   3.2kbits/s speed=0.0743x elapsed=0:00:23.78    \nframe=  111 fps=4.6 q=6.0 size=       1KiB time=00:00:01.83 bitrate=   3.1kbits/s speed=0.0754x elapsed=0:00:24.30    \nframe=  115 fps=4.6 q=6.0 size=       1KiB time=00:00:01.90 bitrate=   3.0kbits/s speed=0.0765x elapsed=0:00:24.82    \nframe=  118 fps=4.7 q=6.0 size=       1KiB time=00:00:01.95 bitrate=   2.9kbits/s speed=0.077x elapsed=0:00:25.32    \nframe=  121 fps=4.7 q=2.0 size=       1KiB time=00:00:02.00 bitrate=   2.8kbits/s speed=0.0774x elapsed=0:00:25.84    \nframe=  124 fps=4.7 q=5.0 size=       1KiB time=00:00:02.05 bitrate=   2.8kbits/s speed=0.0777x elapsed=0:00:26.37    \nframe=  129 fps=4.8 q=1.0 size=       1KiB time=00:00:02.13 bitrate=   2.7kbits/s speed=0.0792x elapsed=0:00:26.91    \nframe=  132 fps=4.8 q=5.0 size=       1KiB time=00:00:02.18 bitrate=   2.6kbits/s speed=0.0796x elapsed=0:00:27.42    \nframe=  135 fps=4.8 q=6.0 size=       1KiB time=00:00:02.23 bitrate=   2.6kbits/s speed=0.0799x elapsed=0:00:27.95    \nframe=  139 fps=4.9 q=6.0 size=       1KiB time=00:00:02.30 bitrate=   2.5kbits/s speed=0.0808x elapsed=0:00:28.48    \nframe=  143 fps=4.9 q=6.0 size=       1KiB time=00:00:02.36 bitrate=   2.4kbits/s speed=0.0816x elapsed=0:00:29.00    \nframe=  147 fps=5.0 q=6.0 size=       1KiB time=00:00:02.43 bitrate=   2.3kbits/s speed=0.0824x elapsed=0:00:29.52    \nframe=  150 fps=5.0 q=7.0 size=       1KiB time=00:00:02.48 bitrate=   2.3kbits/s speed=0.0827x elapsed=0:00:30.03    \nframe=  152 fps=5.0 q=7.0 size=       1KiB time=00:00:02.51 bitrate=   2.3kbits/s speed=0.0824x elapsed=0:00:30.55    \nframe=  156 fps=5.0 q=5.0 size=       1KiB time=00:00:02.58 bitrate=   2.2kbits/s speed=0.0832x elapsed=0:00:31.06    \nframe=  160 fps=5.1 q=6.0 size=       1KiB time=00:00:02.63 bitrate=   2.2kbits/s speed=0.0834x elapsed=0:00:31.58    \nframe=  163 fps=5.1 q=6.0 size=       1KiB time=00:00:02.70 bitrate=   2.1kbits/s speed=0.0841x elapsed=0:00:32.11    \nframe=  166 fps=5.1 q=6.0 size=       1KiB time=00:00:02.75 bitrate=   2.1kbits/s speed=0.0843x elapsed=0:00:32.62    \nframe=  169 fps=5.1 q=2.0 size=       1KiB time=00:00:02.80 bitrate=   2.0kbits/s speed=0.0845x elapsed=0:00:33.14    \nframe=  172 fps=5.1 q=5.0 size=       1KiB time=00:00:02.85 bitrate=   2.0kbits/s speed=0.0847x elapsed=0:00:33.66    \nframe=  178 fps=5.2 q=6.0 size=       1KiB time=00:00:02.95 bitrate=   1.9kbits/s speed=0.0862x elapsed=0:00:34.21    \nframe=  181 fps=5.2 q=5.0 size=       1KiB time=00:00:03.00 bitrate=   1.9kbits/s speed=0.0864x elapsed=0:00:34.73    \nframe=  183 fps=5.2 q=6.0 size=       1KiB time=00:00:03.03 bitrate=   1.9kbits/s speed=0.086x elapsed=0:00:35.25    \nframe=  186 fps=5.2 q=5.0 size=       1KiB time=00:00:03.08 bitrate=   1.8kbits/s speed=0.0861x elapsed=0:00:35.80    \nframe=  188 fps=5.2 q=5.0 size=       1KiB time=00:00:03.11 bitrate=   1.8kbits/s speed=0.0857x elapsed=0:00:36.36    \nframe=  192 fps=5.2 q=7.0 size=       1KiB time=00:00:03.18 bitrate=   1.8kbits/s speed=0.0861x elapsed=0:00:36.95    \nframe=  195 fps=5.2 q=6.0 size=       1KiB time=00:00:03.23 bitrate=   1.8kbits/s speed=0.0862x elapsed=0:00:37.50    \nframe=  197 fps=5.2 q=5.0 size=       1KiB time=00:00:03.26 bitrate=   1.7kbits/s speed=0.0859x elapsed=0:00:38.01    \nframe=  199 fps=5.2 q=6.0 size=       1KiB time=00:00:03.30 bitrate=   1.7kbits/s speed=0.0856x elapsed=0:00:38.56    \nframe=  201 fps=5.1 q=2.0 size=       1KiB time=00:00:03.33 bitrate=   1.7kbits/s speed=0.0852x elapsed=0:00:39.13    \nframe=  205 fps=5.2 q=5.0 size=       1KiB time=00:00:03.40 bitrate=   1.7kbits/s speed=0.0857x elapsed=0:00:39.68    \nframe=  209 fps=5.2 q=1.0 size=       1KiB time=00:00:03.46 bitrate=   1.6kbits/s speed=0.0862x elapsed=0:00:40.22    \nframe=  213 fps=5.2 q=5.0 size=       1KiB time=00:00:03.53 bitrate=   1.6kbits/s speed=0.0867x elapsed=0:00:40.75    \nframe=  213 fps=5.2 q=5.0 size=       1KiB time=00:00:03.53 bitrate=   1.6kbits/s speed=0.0856x elapsed=0:00:41.27    \nframe=  217 fps=5.2 q=2.0 size=       1KiB time=00:00:03.60 bitrate=   1.6kbits/s speed=0.0861x elapsed=0:00:41.79    \nframe=  217 fps=5.1 q=2.0 size=       1KiB time=00:00:03.60 bitrate=   1.6kbits/s speed=0.085x elapsed=0:00:42.35    \nframe=  221 fps=5.2 q=5.0 size=       1KiB time=00:00:03.66 bitrate=   1.6kbits/s speed=0.0855x elapsed=0:00:42.90    \nframe=  221 fps=5.1 q=5.0 size=       1KiB time=00:00:03.66 bitrate=   1.6kbits/s speed=0.0844x elapsed=0:00:43.45    \nframe=  225 fps=5.1 q=1.0 size=       1KiB time=00:00:03.73 bitrate=   1.5kbits/s speed=0.0849x elapsed=0:00:43.97    \nframe=  229 fps=5.1 q=5.0 size=       1KiB time=00:00:03.80 bitrate=   1.5kbits/s speed=0.0854x elapsed=0:00:44.50    \nframe=  233 fps=5.2 q=2.0 size=       1KiB time=00:00:03.86 bitrate=   1.5kbits/s speed=0.0858x elapsed=0:00:45.05    \nframe=  233 fps=5.1 q=2.0 size=       1KiB time=00:00:03.86 bitrate=   1.5kbits/s speed=0.0848x elapsed=0:00:45.59    \nframe=  237 fps=5.1 q=5.0 size=       1KiB time=00:00:03.93 bitrate=   1.4kbits/s speed=0.0852x elapsed=0:00:46.15    \nframe=  239 fps=5.1 q=6.0 size=       1KiB time=00:00:03.93 bitrate=   1.4kbits/s speed=0.0842x elapsed=0:00:46.70    \nframe=  241 fps=5.1 q=1.0 size=       1KiB time=00:00:04.00 bitrate=   1.4kbits/s speed=0.0847x elapsed=0:00:47.24    \nframe=  245 fps=5.1 q=5.0 size=       1KiB time=00:00:04.06 bitrate=   1.4kbits/s speed=0.0851x elapsed=0:00:47.79    \nframe=  249 fps=5.2 q=1.0 size=       1KiB time=00:00:04.13 bitrate=   1.4kbits/s speed=0.0855x elapsed=0:00:48.31    \nframe=  249 fps=5.1 q=1.0 size=       1KiB time=00:00:04.13 bitrate=   1.4kbits/s speed=0.0846x elapsed=0:00:48.84    \nframe=  253 fps=5.1 q=5.0 size=       1KiB time=00:00:04.20 bitrate=   1.4kbits/s speed=0.085x elapsed=0:00:49.39    \nframe=  255 fps=5.1 q=6.0 size=       1KiB time=00:00:04.20 bitrate=   1.4kbits/s speed=0.0841x elapsed=0:00:49.96    \nframe=  259 fps=5.1 q=6.0 size=       1KiB time=00:00:04.30 bitrate=   1.3kbits/s speed=0.0851x elapsed=0:00:50.52    \nframe=  261 fps=5.1 q=5.0 size=       1KiB time=00:00:04.33 bitrate=   1.3kbits/s speed=0.0849x elapsed=0:00:51.06    \nframe=  265 fps=5.1 q=2.0 size=       1KiB time=00:00:04.40 bitrate=   1.3kbits/s speed=0.0853x elapsed=0:00:51.59    \nframe=  265 fps=5.1 q=2.0 size=       1KiB time=00:00:04.40 bitrate=   1.3kbits/s speed=0.0844x elapsed=0:00:52.13    \nframe=  269 fps=5.1 q=5.0 size=       1KiB time=00:00:04.43 bitrate=   1.3kbits/s speed=0.0841x elapsed=0:00:52.71    \nframe=  271 fps=5.1 q=6.0 size=       1KiB time=00:00:04.50 bitrate=   1.3kbits/s speed=0.0845x elapsed=0:00:53.27    \nframe=  275 fps=5.1 q=6.0 size=       1KiB time=00:00:04.56 bitrate=   1.2kbits/s speed=0.0848x elapsed=0:00:53.82    \nframe=  277 fps=5.1 q=5.0 size=       1KiB time=00:00:04.60 bitrate=   1.2kbits/s speed=0.0846x elapsed=0:00:54.38    \nframe=  281 fps=5.1 q=2.0 size=       1KiB time=00:00:04.66 bitrate=   1.2kbits/s speed=0.085x elapsed=0:00:54.93    \nframe=  281 fps=5.1 q=2.0 size=       1KiB time=00:00:04.66 bitrate=   1.2kbits/s speed=0.0841x elapsed=0:00:55.46    \nframe=  285 fps=5.1 q=5.0 size=       1KiB time=00:00:04.73 bitrate=   1.2kbits/s speed=0.0845x elapsed=0:00:55.98    \nframe=  293 fps=5.2 q=3.0 size=       1KiB time=00:00:04.86 bitrate=   1.2kbits/s speed=0.0861x elapsed=0:00:56.51    \n[out#0/matroska @ 00000239bd1890c0] video:3544KiB audio:0KiB subtitle:0KiB other streams:0KiB global headers:0KiB muxing overhead: 0.059734%\nframe=  300 fps=5.3 q=8.0 Lsize=    3546KiB time=00:00:04.98 bitrate=5830.0kbits/s speed=0.0877x elapsed=0:00:56.80    \n",
  "seconds": 57.194756507873535,
  "probe_out": {}
}